<svg width="1280" height="720" xmlns="http://www.w3.org/2000/svg" xmlns:xlink="http://www.w3.org/1999/xlink" overflow="hidden"><defs><clipPath id="clip0"><rect x="0" y="0" width="1280" height="720"/></clipPath><clipPath id="clip1"><rect x="14" y="15" width="1252" height="690"/></clipPath><clipPath id="clip2"><rect x="14" y="15" width="1253" height="690"/></clipPath><clipPath id="clip3"><rect x="14" y="-347" width="1253" height="1254"/></clipPath><linearGradient x1="991.632" y1="817.469" x2="736.128" y2="651.544" gradientUnits="userSpaceOnUse" spreadMethod="pad" id="fill4"><stop offset="0" stop-color="#E73E2B"/><stop offset="1" stop-color="#E73E2B" stop-opacity="0"/></linearGradient><linearGradient x1="335.384" y1="776.445" x2="520.081" y2="647.119" gradientUnits="userSpaceOnUse" spreadMethod="pad" id="fill5"><stop offset="0" stop-color="#0071C6"/><stop offset="1" stop-color="#0C74BA" stop-opacity="0"/></linearGradient><linearGradient x1="158.073" y1="648.713" x2="540.655" y2="648.713" gradientUnits="userSpaceOnUse" spreadMethod="pad" id="fill6"><stop offset="0" stop-color="#17B4ED"/><stop offset="1" stop-color="#17B4ED" stop-opacity="0"/></linearGradient><linearGradient x1="1094.86" y1="678.537" x2="711.816" y2="658.462" gradientUnits="userSpaceOnUse" spreadMethod="pad" id="fill7"><stop offset="0" stop-color="#5CA249"/><stop offset="1" stop-color="#5CA249" stop-opacity="0"/></linearGradient><linearGradient x1="174.172" y1="506.488" x2="533.417" y2="609.5" gradientUnits="userSpaceOnUse" spreadMethod="pad" id="fill8"><stop offset="0" stop-color="#65A745"/><stop offset="1" stop-color="#65A745" stop-opacity="0"/></linearGradient><linearGradient x1="1046.35" y1="522.651" x2="714.116" y2="581.233" gradientUnits="userSpaceOnUse" spreadMethod="pad" id="fill9"><stop offset="0" stop-color="#0D7EBF"/><stop offset="1" stop-color="#0D7EBF" stop-opacity="0"/></linearGradient><linearGradient x1="358.584" y1="466.422" x2="522.367" y2="581.104" gradientUnits="userSpaceOnUse" spreadMethod="pad" id="fill10"><stop offset="0" stop-color="#EB7C2F"/><stop offset="1" stop-color="#EB7C2F" stop-opacity="0"/></linearGradient><linearGradient x1="903.681" y1="398.183" x2="763.618" y2="598.214" gradientUnits="userSpaceOnUse" spreadMethod="pad" id="fill11"><stop offset="0" stop-color="#24458F"/><stop offset="1" stop-color="#24458F" stop-opacity="0"/></linearGradient></defs><g clip-path="url(#clip0)"><rect x="0" y="0" width="1280" height="720" fill="#FFFFFF"/><g clip-path="url(#clip1)"><g clip-path="url(#clip2)"><g clip-path="url(#clip3)"><path d="M866.175 825.068C861.167 818.808 860.959 816.513 864.089 808.375 865.758 803.784 865.341 800.863 862.628 794.603 858.246 784.795 858.037 784.795 849.482 796.063 841.97 806.079 835.71 808.166 833.623 801.28 831.954 795.855 833.832 792.933 839.049 792.933 852.821 792.933 855.325 758.921 843.222 733.255 831.745 708.632 806.705 681.088 787.925 672.115 778.118 667.525 746.192 660.639 724.699 658.135L711.553 656.674 711.553 647.701 711.553 638.52 720.526 639.772C745.983 643.319 777.075 649.371 789.803 653.335 803.575 657.509 859.915 679.836 867.219 684.009 869.723 685.47 872.644 685.261 875.774 683.801 887.459 678.584 896.849 693.191 887.251 701.746 880.573 707.797 873.061 704.667 869.514 694.651 868.471 691.521 854.49 685.47 834.041 679.21L824.025 676.289 828.824 682.131C831.537 685.261 838.631 694.234 844.683 701.746 872.435 736.385 898.31 747.653 930.653 739.515 947.138 735.133 955.067 736.385 973.639 745.983 984.281 751.617 988.245 752.661 991.167 751.2 1002.02 745.357 1016.21 752.035 1016.21 762.885 1016.21 781.457 991.167 786.047 986.159 768.519 981.985 754.33 950.685 745.357 930.027 752.452 918.133 756.417 917.925 754.747 931.905 768.728 943.799 780.622 945.469 786.673 936.913 786.673 934.201 786.673 931.905 784.378 929.819 779.579 926.063 770.606 920.846 767.267 896.849 758.295 886.207 754.33 873.896 748.696 869.305 745.775L861.376 740.349 862.628 748.487C863.254 752.869 864.297 762.051 865.132 768.937 867.01 787.508 872.435 798.359 880.365 800.237 898.31 804.201 895.806 830.493 877.443 830.493 872.435 830.493 869.305 829.033 866.175 825.068Z" fill="url(#fill4)" transform="matrix(1 0 0 -1.0007 14 906.188)"/><path d="M252.487 782.5C246.018 776.031 246.853 763.094 253.739 757.669 270.849 744.105 290.673 766.85 276.066 783.126 271.267 788.134 257.912 787.925 252.487 782.5Z" fill="#0C74BA" transform="matrix(1 0 0 -1.0007 14 906.188)"/><path d="M319.886 782.5C314.252 780.205 313.209 769.98 318.217 765.807 320.095 764.346 329.485 762.468 339.083 761.425 362.245 759.338 367.253 756.208 385.199 732.211 416.081 691.313 459.484 661.473 511.442 646.241 542.325 637.059 540.447 636.851 540.447 647.91 540.447 653.753 539.403 657.717 537.943 658.135 476.386 674.411 431.314 704.25 402.727 747.027 382.903 776.866 373.305 782.917 344.3 783.961 333.449 784.378 322.39 783.752 319.886 782.5Z" fill="url(#fill5)" fill-rule="evenodd" transform="matrix(1 0 0 -1.0007 14 906.188)"/><path d="M163.386 733.463C157.335 729.081 156.291 720.943 161.091 714.683 165.89 708.423 174.237 707.797 180.288 713.431 184.67 717.396 199.068 716.979 225.36 712.597 236.628 710.719 254.573 692.147 246.227 691.104 243.305 690.895 236.002 689.643 230.159 688.391 224.108 687.139 218.474 686.096 217.639 686.096 212.84 685.887 208.458 681.505 209.084 677.541 209.919 671.072 217.848 670.446 222.021 676.289 227.029 683.592 247.479 684.427 267.511 677.958 281.491 673.576 286.499 673.159 327.815 672.95L372.887 672.95 389.372 664.603 405.857 656.257 386.033 655.631C370.383 655.213 362.871 656.048 350.977 659.387 333.032 664.812 328.441 664.186 301.315 654.17 272.31 643.528 250.191 639.563 236.628 642.485 223.899 645.406 221.187 644.571 221.187 637.268 221.187 626.417 251.652 624.539 282.743 633.721 291.299 636.225 274.605 621.618 261.877 615.567 237.671 604.09 192.808 600.96 185.296 610.35 179.871 617.236 168.811 617.445 162.76 610.976 149.197 596.369 170.689 575.294 184.879 589.483 189.678 594.283 191.556 594.7 211.379 594.7 223.065 594.909 236.837 595.743 242.053 596.787 254.782 599.082 254.782 598.456 242.471 585.519 231.62 574.042 229.533 568.408 234.124 563.817 240.175 557.766 248.939 561.731 251.443 571.955 254.573 584.475 277.735 607.22 287.543 607.22 297.559 607.22 331.78 592.405 334.493 586.562 339.709 575.503 356.194 575.92 361.202 587.188 367.045 599.917 355.777 610.976 341.796 606.177 334.701 603.881 332.823 604.09 319.051 610.141 298.602 618.905 296.933 622.035 308.201 632.26 320.929 643.528 330.528 645.406 348.056 640.398 360.159 636.851 366.001 636.642 390.207 637.685 418.168 638.937 418.585 638.937 442.373 631.634 469.5 623.496 485.567 620.575 518.119 618.488L540.655 617.027 540.029 626.209C539.403 634.764 538.986 635.39 533.143 636.016 474.925 641.65 407.317 670.029 388.12 696.947 376.226 713.64 362.037 716.561 351.812 704.459 344.091 695.277 335.953 692.982 309.87 692.773 281.909 692.773 273.979 697.155 249.983 725.951 244.766 732.211 243.305 732.837 236.419 731.585 210.753 727.412 184.253 727.621 179.662 732.211 174.445 737.428 169.646 737.845 163.386 733.463Z" fill="url(#fill6)" transform="matrix(1 0 0 -1.0007 14 906.188)"/><path d="M938.165 729.081C936.287 727.412 934.827 723.239 934.827 720.109 934.827 695.903 911.873 666.899 878.695 649.162 856.577 637.477 848.856 636.433 776.866 636.433L711.553 636.433 711.553 627.043 711.553 617.653 766.433 617.862C796.481 617.862 829.033 618.697 838.84 619.949 894.554 626 925.645 624.539 930.027 615.567 937.748 599.917 959.867 603.464 959.867 620.575 959.867 633.929 945.26 640.815 934.618 632.469 931.905 630.382 928.358 629.13 926.897 629.756 925.437 630.173 916.464 631.634 907.074 633.095L889.963 635.39 898.31 640.607C902.901 643.319 913.543 651.04 922.098 657.717 965.709 692.565 1001.81 697.781 1023.72 672.533 1028.73 666.899 1031.23 665.438 1034.57 666.69 1041.25 668.568 1040.2 673.785 1031.65 682.549L1024.34 690.061 1044.17 690.061C1063.37 690.061 1063.99 690.061 1068.16 684.218 1074.22 676.08 1085.07 675.871 1091.12 683.592 1104.06 700.077 1082.77 718.439 1068.37 703.207 1061.28 695.695 1043.54 694.651 1017.25 700.494 999.722 704.25 999.513 704.667 1006.82 711.553 1012.66 716.979 1013.7 723.656 1008.9 725.325 1007.03 726.16 1002.43 723.239 996.801 717.605 990.332 710.719 984.072 707.171 973.43 703.415 965.292 700.703 955.276 696.529 950.894 694.443 946.303 692.147 942.547 690.687 942.13 691.104 941.295 691.73 947.764 715.935 950.477 722.195 953.189 729.29 943.591 734.715 938.165 729.081Z" fill="url(#fill7)" transform="matrix(1 0 0 -1.0007 14 906.188)"/><path d="M550.88 692.773C548.167 691.104 547.75 680.253 547.541 616.61L547.333 542.533 564.861 542.533 582.18 542.533 582.18 561.313C582.18 588.857 591.57 605.133 611.185 610.976 644.989 621.201 670.863 597.83 669.611 558.601L669.194 543.577 686.096 542.951 703.207 542.325 703.207 616.193C703.207 694.86 703.207 694.86 692.773 694.86 684.635 694.86 682.34 691.104 682.34 677.541 682.34 665.647 682.131 665.229 677.749 666.481 644.571 676.289 597.621 676.289 573.416 666.69 570.077 665.438 569.66 666.69 569.66 676.706 569.66 692.565 561.522 699.451 550.88 692.773ZM607.637 654.17C607.637 646.658 607.846 639.355 608.055 638.103 608.263 636.642 606.177 635.181 603.673 634.764 599.082 634.138 598.873 634.764 598.873 649.579 598.873 664.395 599.708 666.899 605.759 667.525 606.594 667.733 607.429 661.682 607.637 654.17ZM622.453 652.709C623.913 636.225 623.287 634.347 617.445 634.347 613.897 634.347 613.48 635.807 613.48 651.04 613.48 665.855 613.897 667.733 617.445 667.733 620.575 667.733 621.409 665.438 622.453 652.709ZM638.52 651.04C638.52 634.555 638.52 634.347 633.303 634.347 628.087 634.347 628.087 634.555 628.087 651.04 628.087 667.525 628.087 667.733 633.303 667.733 638.52 667.733 638.52 667.525 638.52 651.04ZM649.788 666.481C652.501 665.438 653.127 661.891 653.127 649.788 653.127 634.764 652.918 634.347 647.91 634.347 642.693 634.347 642.693 634.555 642.693 651.04 642.693 667.525 643.319 668.985 649.788 666.481ZM592.613 649.997C592.613 635.807 592.196 634.347 588.44 634.347 583.432 634.347 581.971 662.308 586.979 664.186 592.196 666.481 592.613 665.229 592.613 649.997ZM665.855 663.56C666.899 663.56 667.733 657.091 667.733 648.953 667.733 634.764 667.525 634.347 662.517 634.347 657.509 634.347 657.3 634.764 657.3 650.205 657.3 663.769 657.717 665.855 660.639 664.812 662.517 664.186 664.812 663.56 665.855 663.56ZM578.007 649.997C578.007 643.737 578.007 637.894 578.007 637.059 578.007 636.016 575.711 635.181 572.79 634.764 567.365 634.138 567.365 634.138 568.617 646.241 569.869 657.091 571.955 661.265 576.546 661.473 577.381 661.473 578.007 656.257 578.007 649.997ZM679.001 660.221C681.505 659.178 682.34 655.839 682.34 646.658 682.34 634.973 682.131 634.347 677.123 634.347 672.115 634.347 671.907 634.764 671.907 647.91 671.907 661.265 672.741 662.725 679.001 660.221Z" fill="#1C1C1C" transform="matrix(1 0 0 -1.0007 14 906.188)"/><path d="M381.86 614.106C371.218 606.594 380.191 591.779 392.711 596.369 401.475 599.499 446.338 597.413 438.2 594.074 435.279 593.031 421.715 587.188 407.943 581.137 375.183 566.739 375.183 566.739 326.563 566.739 276.483 566.53 271.684 565.069 250.191 543.368 231.203 524.171 204.076 516.45 191.765 526.675 179.662 536.899 166.933 531.057 166.933 515.198 166.933 499.339 189.261 493.705 195.729 508.103 198.442 513.946 207.623 515.824 235.167 516.45L254.156 516.659 266.467 529.179C281.7 544.829 289.212 547.333 319.677 546.289L341.587 545.663 350.351 537.943C363.706 525.631 368.923 526.675 392.293 546.498 424.637 573.416 480.768 594.074 531.057 597.204 538.986 597.83 539.403 598.039 540.029 605.759L540.655 613.48 524.379 613.48C515.407 613.48 493.079 612.019 474.717 610.35 426.306 605.968 402.309 606.177 397.719 611.185 392.711 616.61 387.077 617.653 381.86 614.106Z" fill="url(#fill8)" transform="matrix(1 0 0 -1.0007 14 906.188)"/><path d="M711.553 606.385 711.553 597.413 751.826 596.161C821.938 594.074 842.805 588.44 858.663 567.156 871.392 550.254 879.113 544.829 902.483 536.273 936.079 524.171 943.382 518.119 950.477 497.253 953.398 488.906 960.493 485.359 962.579 491.201 963.623 494.123 958.615 506.017 951.52 516.867 947.138 523.545 947.973 523.753 985.115 528.553 1016.83 532.517 1018.92 532.517 1020.8 529.179 1028.52 515.407 1052.93 526.049 1048.34 541.281 1043.96 555.679 1018.29 557.349 1018.29 543.159 1018.29 536.482 948.39 534.187 932.74 540.238 904.987 550.88 885.999 562.148 879.113 571.747 865.758 590.527 860.541 595.535 849.899 600.334 831.537 608.889 806.705 612.019 759.338 612.228 735.55 612.437 716.561 613.063 717.187 614.106 717.605 614.941 716.561 615.567 714.892 615.567 712.388 615.567 711.553 613.271 711.553 606.385ZM714.414 604.159C714.414 603.533 714.366 602.507 714.683 603.047 715.577 604.566 714.745 603.395 714.745 604.021 714.745 604.647 716.129 602.854 714.683 605.133 714.348 605.662 714.414 604.785 714.414 604.159Z" fill="url(#fill9)" transform="matrix(1 0 0 -1.0007 14 906.188)"/><path d="M508.103 587.188C466.37 575.92 417.125 545.037 393.337 515.198 375.6 492.871 366.627 484.315 354.942 478.264 341.17 471.378 338.457 467.622 341.796 460.319 343.883 455.728 345.552 454.893 352.438 454.893 370.592 454.893 383.947 464.075 402.518 489.115 435.487 533.561 471.795 558.183 522.084 570.495L540.447 574.877 540.447 583.849C540.447 594.7 537.108 595.117 508.103 587.188Z" fill="url(#fill10)" transform="matrix(1 0 0 -1.0007 14 906.188)"/><path d="M711.553 584.058 711.553 574.877 732.42 571.121C764.346 565.695 791.055 556.097 802.532 546.081 830.493 521.458 841.761 461.779 820.477 451.346 804.619 443.625 807.749 423.385 824.859 421.924 838.214 420.672 845.935 435.905 838.214 447.59 835.919 451.137 836.127 454.267 839.883 467.205L844.474 482.437 854.49 468.457C868.262 449.051 872.018 436.113 866.175 428.601 854.073 413.16 872.227 395.006 887.668 407.109 896.849 414.412 892.05 434.027 881.199 434.027 879.739 434.027 877.652 439.452 876.4 446.129 874.939 453.015 869.723 465.535 863.88 475.76 858.455 485.567 848.021 505.182 840.927 519.371L828.198 545.246 842.179 537.525C872.644 520.623 888.92 508.938 892.05 501.426 893.928 497.044 897.267 493.288 900.814 492.036 909.161 488.906 929.193 455.728 926.271 450.094 921.055 440.704 928.984 429.853 941.087 429.853 960.493 429.853 960.701 458.441 941.295 460.11 931.279 460.736 912.291 490.367 917.299 497.461 921.263 503.304 921.055 507.686 915.838 514.155 911.456 519.58 901.023 521.667 898.31 517.493 897.684 516.45 888.503 521.249 878.069 528.135 820.686 565.695 771.023 586.145 723.239 591.779L711.553 593.239 711.553 584.058Z" fill="url(#fill11)" transform="matrix(1 0 0 -1.0007 14 906.188)"/><path d="M264.172 477.429C259.581 470.961 259.999 464.075 265.007 459.067 277.109 446.964 294.637 463.24 284.621 477.429 282.535 480.559 279.405 482.02 274.397 482.02 269.389 482.02 266.259 480.559 264.172 477.429Z" fill="#EB7C2F" transform="matrix(1 0 0 -1.0007 14 906.188)"/></g></g></g><text font-family="Segoe Print,Segoe Print_MSFontService,sans-serif" font-weight="400" font-size="107" transform="translate(275.381 612)">f<tspan font-size="107" x="39.6667" y="0">enicsx</tspan>-<tspan font-size="107" x="421.833" y="0">cosim</tspan></text></g></svg>